<svg xmlns="http://www.w3.org/2000/svg" version="1.1" xmlns:xlink="http://www.w3.org/1999/xlink" xmlns:svgjs="http://svgjs.com/svgjs" width="1440" height="560" preserveAspectRatio="none" viewBox="0 0 1440 560"><g mask="url(&quot;#SvgjsMask1065&quot;)" fill="none"><path d="M1536 560L0 560 L0 204.32Q33.71 118.03, 120 151.74Q145.16 104.91, 192 130.07Q251.16 117.23, 264 176.39Q332.88 125.27, 384 194.16Q429.07 167.23, 456 212.3Q475.2 159.5, 528 178.71Q534.01 112.72, 600 118.74Q666.36 65.09, 720 131.45Q798.46 89.91, 840 168.36Q937.81 146.17, 960 243.98Q967.57 131.55, 1080 139.12Q1104.98 92.1, 1152 117.08Q1209.01 102.09, 1224 159.1Q1272.9 88, 1344 136.91Q1385.54 106.45, 1416 147.99Q1506.06 118.05, 1536 208.1z" fill="rgba(247, 141, 201, 1)"></path><path d="M1488 560L0 560 L0 284.66Q72.44 237.1, 120 309.53Q208.65 278.18, 240 366.83Q306.23 313.06, 360 379.29Q387.92 287.21, 480 315.12Q499.52 214.64, 600 234.17Q643.18 205.35, 672 248.53Q752.6 209.13, 792 289.72Q893.76 271.49, 912 373.25Q912.99 254.24, 1032 255.22Q1060.13 211.35, 1104 239.48Q1157.01 220.49, 1176 273.49Q1227.6 253.09, 1248 304.69Q1272.71 209.4, 1368 234.11Q1446.88 192.99, 1488 271.87z" fill="rgba(221, 138, 224, 1)"></path><path d="M1512 560L0 560 L0 359.87Q86.26 326.13, 120 412.39Q147.36 319.75, 240 347.11Q281.43 316.54, 312 357.97Q354.06 328.03, 384 370.09Q491.81 357.9, 504 465.72Q556.78 398.5, 624 451.29Q633.75 341.05, 744 350.8Q773.7 308.5, 816 338.2Q921.59 323.79, 936 429.38Q984.25 405.63, 1008 453.89Q1010.7 336.58, 1128 339.28Q1215.88 355.15, 1200 443.03Q1255.37 426.39, 1272 481.76Q1293.98 383.74, 1392 405.71Q1457.87 351.57, 1512 417.44z" fill="rgba(215, 141, 247, 1)"></path><path d="M1488 560L0 560 L0 459.04Q117.96 457, 120 574.96Q150.54 533.5, 192 564.04Q204.24 456.27, 312 468.51Q383.31 419.82, 432 491.14Q473.95 413.09, 552 455.04Q641.66 424.7, 672 514.36Q722.54 444.9, 792 495.44Q858.42 489.86, 864 556.28Q884.98 505.26, 936 526.24Q939.67 457.91, 1008 461.58Q1073.39 406.97, 1128 472.36Q1231.07 455.42, 1248 558.49Q1319.41 509.9, 1368 581.31Q1380.72 474.03, 1488 486.75z" fill="rgba(178, 135, 237, 1)"></path></g><defs><mask id="SvgjsMask1065"><rect width="1440" height="560" fill="#ffffff"></rect></mask></defs></svg>